<svg xmlns="http://www.w3.org/2000/svg" xmlns:xlink="http://www.w3.org/1999/xlink" viewBox="0 0 284.5 109"><defs><style>.cls-1,.cls-5{fill:#ffffff;}.cls-1,.cls-3,.cls-4,.cls-5,.cls-6{stroke:#000000;stroke-linecap:round;stroke-linejoin:round;}.cls-1{stroke-width:4px;}.cls-2{fill:url(#linear-gradient);}.cls-3{fill:none;}.cls-3,.cls-4,.cls-5,.cls-6{stroke-width:2px;}.cls-4{fill:url(#linear-gradient-2);}.cls-6{fill:url(#linear-gradient-3);}.cls-7{fill:#ed1c24;}</style><linearGradient id="linear-gradient" x1="143.5" y1="38" x2="143.5" y2="86" gradientUnits="userSpaceOnUse"><stop offset="0" stop-color="#fff" stop-opacity="0.5"/><stop offset="1" stop-color="#adadad"/></linearGradient><linearGradient id="linear-gradient-2" x1="37.5" y1="88" x2="77.5" y2="88" gradientUnits="userSpaceOnUse"><stop offset="0" stop-color="#656565"/><stop offset="1" stop-color="#171717"/></linearGradient><linearGradient id="linear-gradient-3" x1="206.5" x2="246.5" xlink:href="#linear-gradient-2"/></defs><title>SUV_clr</title><g id="Layer_2" data-name="Layer 2"><g id="Layer_1-2" data-name="Layer 1"><path class="cls-1" d="M80.73,33.13S67.1,35.28,58.49,35.64,14,42.46,11.86,43.53,9,46.4,8.28,47.48,2.54,56.8,2.54,58.6a31.59,31.59,0,0,0,.72,6.1c.36,1.43,0,1.43-.72,2.87s-.72,1.79,0,6.46.36,3.59,1.79,5.38,6.82,5,9.33,5.74,12.91,1.43,13.63,1.43H28l59.18,5.74H198.74l56-7.89,24.75-3.23S281.6,79.76,282,78s1.43-13.27-1.08-15.42a19.44,19.44,0,0,1-3.23-3.23s1.43-11.12,0-15.42l2.15-.36s.72-3.95-6.1-12.91-12.2-17.22-12.2-17.22a8.06,8.06,0,0,1,5-1.43c2.51.36,3.23-2.87,2.51-3.23s-19.37-2.15-19.37-2.15-70.3-1.79-88.24-1.79S121.27,8,107.64,15.91,80.73,33.13,80.73,33.13Z"/><path class="cls-2" d="M267.06,61.54a52.51,52.51,0,0,1-28.33-9.66C229.69,45.46,219.07,38,218.5,38c-.9,0-5.89,3.26-6.84,3.9a.68.68,0,0,1-.36.11L70.62,47a.7.7,0,0,0-.22,0L28.62,63a.7.7,0,0,1-.25,0H15.2a.7.7,0,0,0-.7.7v2.07a.7.7,0,0,0,.14.42L20.2,73.6a.7.7,0,0,0,.72.26c.78-.18,2.64-.33,5.57,1.14s1,5.1-.2,6.92A.7.7,0,0,0,26.88,83h5.9a.7.7,0,0,0,.69-.58,49.65,49.65,0,0,1,1.65-5.22,16.65,16.65,0,0,1,5.14-7.13c12.36-10.63,31-9.41,40.68,4.37a91.23,91.23,0,0,1,4.59,11,.69.69,0,0,0,.68.53H199.89a.7.7,0,0,0,.69-.58c.52-3.33,4-19.79,21.92-21.42,19.89-1.81,27.52,11.91,28.8,14.56a.7.7,0,0,0,.7.39l19.87-1.89a.7.7,0,0,0,.63-.7v-14a.7.7,0,0,0-1-.61Z"/><line class="cls-3" x1="150.49" y1="44.58" x2="137.71" y2="45.01"/><line class="cls-3" x1="206.49" y1="41.58" x2="193.71" y2="42.01"/><path class="cls-3" d="M9.71,67.92c.36,2.15,3.23,9.68,4.3,10s5.66-.16,6.23-.72"/><path class="cls-3" d="M49.94,44.74S26.27,48,21.24,49.4a11.15,11.15,0,0,0-6.82,5c-.36.36,9,1.08,10.4,1.08S49.94,44.74,49.94,44.74Z"/><path class="cls-3" d="M95.49,37.36c.36-1.08,7.17-8.61,10.76-11.12S120.5,17,126.34,15.12c7.11-2.29,15.68-3.08,20.32-3.59C151.5,11,155.5,11,155.5,11L151,35.64Z"/><path class="cls-3" d="M162,10.53l-2.08,25.11,38.74-2.15L208,28.83a11.1,11.1,0,0,1,3.9-1.06L194.85,11Z"/><path class="cls-3" d="M264.31,30.26l-8.61-14a78.75,78.75,0,0,0-7.89-2.15A451.09,451.09,0,0,0,202.14,11l18.56,17C234.62,28.7,264.31,30.26,264.31,30.26Z"/><circle class="cls-4" cx="57.5" cy="88" r="20"/><circle class="cls-5" cx="57.5" cy="88" r="10.67"/><circle class="cls-6" cx="226.5" cy="88" r="20"/><circle class="cls-5" cx="226.5" cy="88" r="10.67"/><path class="cls-7" d="M269.5,52.8c1.2-4.8-2-6.8-2-6.8H237.9l21.6,10h8Z"/><path class="cls-3" d="M14,78c1.08.36,5.66-.16,6.23-.72"/><path class="cls-3" d="M236.32,6.26,250.5,1s1.31.56,1.16,5.78"/><path class="cls-3" d="M272.5,49.8c1.2-4.8-2-6.8-2-6.8H240.9l21.6,10h8Z"/></g></g></svg>