<svg xmlns="http://www.w3.org/2000/svg" xmlns:xlink="http://www.w3.org/1999/xlink" viewBox="0 0 256.14 83.13"><defs><style>.cls-1,.cls-7{fill:#ffffff;}.cls-1,.cls-2,.cls-4,.cls-6,.cls-7{stroke:#000000;stroke-linecap:round;stroke-linejoin:round;}.cls-1{stroke-width:4px;}.cls-2{fill:none;}.cls-2,.cls-4,.cls-6,.cls-7{stroke-width:2px;}.cls-3{fill:#ed1c24;}.cls-4{fill:url(#linear-gradient);}.cls-5{fill:url(#linear-gradient-2);}.cls-6{fill:url(#linear-gradient-3);}</style><linearGradient id="linear-gradient" x1="32.12" y1="67.13" x2="62.12" y2="67.13" gradientUnits="userSpaceOnUse"><stop offset="0" stop-color="#656565"/><stop offset="1" stop-color="#171717"/></linearGradient><linearGradient id="linear-gradient-2" x1="133.86" y1="35.62" x2="133.86" y2="66.78" gradientUnits="userSpaceOnUse"><stop offset="0" stop-color="#fff" stop-opacity="0.5"/><stop offset="1" stop-color="#adadad"/></linearGradient><linearGradient id="linear-gradient-3" x1="187.3" y1="67.13" x2="217.3" y2="67.13" xlink:href="#linear-gradient"/></defs><title>sedan_clr</title><g id="Layer_2" data-name="Layer 2"><g id="Layer_1-2" data-name="Layer 1"><path class="cls-1" d="M61.25,72.95h120s6.37,0,8.54.08"/><path class="cls-1" d="M216.44,71.56c1.28-.18,9.74-.37,10.87-.59C242.65,68,250.62,65,252.6,63s1.49-18.81,1.49-23.76a59.11,59.11,0,0,0-1.49-12.34s-31.87-3-35.34-4.48c-8-5.2-14.11-10.7-32-17.35-22.26-5-61.88-2.48-61.88-2.48S109.83,3.79,80.28,17.5C66.42,23.94,62,26.42,62,26.42S32.76,33.35,18.41,37.8,6.53,50.18,6.53,50.18L2.07,52.65S1.08,67,6.53,70s12.87,3,17.82,3H34"/><path class="cls-2" d="M36.65,41.06s-3.94,5.64-9.07,7.7S13.9,52.12,13.9,52.12a7.57,7.57,0,0,1,5-6.55C25.06,43.1,28.6,42.39,36.65,41.06Z"/><path class="cls-2" d="M9.42,58.81s-.5,3.47,1.49,5,6.93,1,6.93,1"/><path class="cls-3" d="M244.18,33.82s-13.37.49-15.84,2.47-2,1.49-2,1.49,4,7.43,18.32,6.44l.18-4.16a17.18,17.18,0,0,0-.13-3Z"/><path class="cls-2" d="M137.88,9.42,135.4,31.69,71,34.17S97.78,19.81,106.2,16.35,122.53,9.42,137.88,9.42Z"/><path class="cls-2" d="M146.78,9.42,144.3,31.69l52.94-3,4.92-5.94c.35.46-13.29-9.16-23.21-11.39C170.14,9.42,161.62,9,146.78,9.42Z"/><path class="cls-2" d="M246.18,31.82s-13.37.49-15.84,2.47-2,1.49-2,1.49,4,7.43,18.32,6.44l.18-4.16a17.18,17.18,0,0,0-.13-3Z"/><circle class="cls-4" cx="47.12" cy="67.13" r="15"/><path class="cls-5" d="M25.14,63.78a14.39,14.39,0,0,1-3-2c-2-2-3-7-3-7a32.65,32.65,0,0,0,17.17-8,34.21,34.21,0,0,0,3.83-4l5-5,20.8-.26,47.7-.59,52.58-.65,24-.3,10.87-.14c1.5,0,3.6-.43,5.07-.06,2.29.57,5.15.81,7.27,1.82,1.58.75,1.81,2.33,2.93,3.77a16.09,16.09,0,0,0,5.78,4.51c3.52,1.68,7.41,2.19,11.21,2.84,2.85.48,11.9,1.06,14.8,1.06,1,0,0,10,0,10-6.08,2.61-19.37,5.62-26.08,5,.09,0-1.13-4.72-1.3-5.14A20.88,20.88,0,0,0,218,54.73a19.92,19.92,0,0,0-8.91-6.66c-13.25-4.86-25.95,5-25.95,18.7h-117c.88,0-.92-6.11-1.08-6.64A17.28,17.28,0,0,0,60.33,52a19,19,0,0,0-20.62-3.35,24.27,24.27,0,0,0-9,7.57C30.2,56.91,25.59,64,25.14,63.78Z"/><circle class="cls-6" cx="202.3" cy="67.13" r="15"/><circle class="cls-7" cx="47.12" cy="67.13" r="8"/><circle class="cls-7" cx="202.07" cy="67.13" r="8"/><line class="cls-2" x1="127.76" y1="39.51" x2="119.35" y2="39.79"/><line class="cls-2" x1="194.65" y1="36.41" x2="186.25" y2="36.94"/><line class="cls-2" x1="183.23" y1="13.52" x2="182.08" y2="29.2"/></g></g></svg>