<svg xmlns="http://www.w3.org/2000/svg" xmlns:xlink="http://www.w3.org/1999/xlink" viewBox="0 0 237.31 77.7"><defs><style>.cls-1,.cls-6{fill:#ffffff;}.cls-1,.cls-3,.cls-5,.cls-6,.cls-7{stroke:#000000;stroke-linecap:round;stroke-linejoin:round;}.cls-1{stroke-width:4px;}.cls-2{fill:url(#linear-gradient);}.cls-3{fill:none;}.cls-3,.cls-5,.cls-6,.cls-7{stroke-width:2px;}.cls-4{fill:#ed1c24;}.cls-5{fill:url(#linear-gradient-2);}.cls-7{fill:url(#linear-gradient-3);}</style><linearGradient id="linear-gradient" x1="120.35" y1="18.31" x2="120.35" y2="58.56" gradientUnits="userSpaceOnUse"><stop offset="0" stop-color="#fff" stop-opacity="0.5"/><stop offset="1" stop-color="#adadad"/></linearGradient><linearGradient id="linear-gradient-2" x1="164.39" y1="61.22" x2="195.35" y2="61.22" gradientUnits="userSpaceOnUse"><stop offset="0" stop-color="#656565"/><stop offset="1" stop-color="#171717"/></linearGradient><linearGradient id="linear-gradient-3" x1="34.54" y1="61.22" x2="65.49" y2="61.22" xlink:href="#linear-gradient-2"/></defs><title>coupe_clr</title><g id="Layer_2" data-name="Layer 2"><g id="Layer_1-2" data-name="Layer 1"><path class="cls-1" d="M72.76,22.84S53.37,25,44.27,26,21.82,33.65,14.14,37.29A40.71,40.71,0,0,0,2,46v5.26l2.83,1.42L5,59.34l-.81,2.22,27.91,3s57.24-.81,61.29-1,64.93-.81,76.05-.81,43.08-2.22,49.35-3.84,11.12-1.82,12.94-3,4-8.09,3.44-9.3-3-2.22-2.43-4.25,1.62-8.29,1-9.71-3.24-1.08-3.44-3.17a4.43,4.43,0,0,1,1.21-3.71c.61-.81-7.89-.4-7.89-.4S196.78,15.44,190.51,13,158.72.94,135.09,2.1,109.75,5,89.38,14.64C80.12,19,72.76,22.84,72.76,22.84Z"/><path class="cls-2" d="M50,30.9S163.8,29,170.13,27.61s15.33-9.3,15.33-9.3l14.39,4.25S227.72,33.77,228,34.94s-1.92,8.32.08,10.81-.33,5.82-2,6.49-27.28,4-27.28,4-6.18-19.28-25.72-13a17.82,17.82,0,0,0-12.58,14.25L69.8,58.56S70.24,40.75,50,40.75c-17.47,0-19.89,17.82-19.89,17.82L11.8,56.23V47.56s9.84-3.33,16.76-5.33S42.24,39.23,50,30.9Z"/><line class="cls-3" x1="131.64" y1="32.29" x2="143.78" y2="32.29"/><path class="cls-4" d="M204.05,29.61s-6.66.74-7.16,2.47,3.46,6.38,5.18,6.77,13.33-.35,14.32-1.34S219.35,33.56,204.05,29.61Z"/><path class="cls-3" d="M207.05,27.61s-6.66.74-7.16,2.47,3.46,6.38,5.18,6.77,13.33-.35,14.32-1.34S222.35,31.56,207.05,27.61Z"/><path class="cls-3" d="M131.61,9a56.44,56.44,0,0,0-14.73,1.73,29.88,29.88,0,0,0-6.42,2.31c-5.26,2.83-25.69,13.35-25.69,13.35s51.37-1.21,56-1.21,8.09-.2,8.09-.2l3.84-14.16A139,139,0,0,0,131.61,9Z"/><path class="cls-3" d="M159.47,11.33l-3.64,14S169,25.09,173,23.74s6.74-6.81,6.74-6.81S173.43,13.56,159.47,11.33Z"/><circle class="cls-5" cx="179.87" cy="61.22" r="15.48"/><circle class="cls-6" cx="179.87" cy="61.22" r="8.22"/><circle class="cls-7" cx="50.02" cy="61.22" r="15.48"/><circle class="cls-6" cx="50.02" cy="61.22" r="8.22"/><path class="cls-3" d="M39.55,28.32s-14.13,3.08-23.44,10S35.41,35.61,39.55,33,44.2,27.07,39.55,28.32Z"/></g></g></svg>