<svg xmlns="http://www.w3.org/2000/svg" xmlns:xlink="http://www.w3.org/1999/xlink" viewBox="0 0 234 89"><defs><style>.cls-1,.cls-2{fill:#ffffff;}.cls-1,.cls-2,.cls-4,.cls-5,.cls-6{stroke:#000000;stroke-linecap:round;stroke-linejoin:round;}.cls-1{stroke-width:4px;}.cls-2,.cls-4,.cls-5,.cls-6{stroke-width:2px;}.cls-3{fill:url(#linear-gradient);}.cls-4{fill:url(#linear-gradient-2);}.cls-5{fill:none;}.cls-6{fill:url(#linear-gradient-3);}.cls-7{fill:#ed1c24;}</style><linearGradient id="linear-gradient" x1="120.58" y1="33" x2="120.58" y2="66" gradientUnits="userSpaceOnUse"><stop offset="0" stop-color="#fff" stop-opacity="0.5"/><stop offset="1" stop-color="#adadad"/></linearGradient><linearGradient id="linear-gradient-2" x1="181" y1="72.67" x2="211" y2="72.67" gradientUnits="userSpaceOnUse"><stop offset="0" stop-color="#656565"/><stop offset="1" stop-color="#171717"/></linearGradient><linearGradient id="linear-gradient-3" x1="35" y1="73" x2="65" y2="73" xlink:href="#linear-gradient-2"/></defs><title>compactsedan_clr</title><g id="Layer_2" data-name="Layer 2"><g id="Layer_1-2" data-name="Layer 1"><path class="cls-1" d="M8.16,71.4a8.53,8.53,0,0,0,3.53.76H24.33L169.75,72s33.19.6,41,0,20.52-6,20.52-6l.6-10.69s-1.81-5.43-1.81-7.24,2.41-18.1,1.81-20.52l-21.07-3.21S190.27,8.79,180.61,5.77,136,1.55,125.1,2.15,94.93,7.58,90.1,10,46.65,33.53,46.65,33.53,22,39.29,7,45.94a5.27,5.27,0,0,0-3.14,4.83v6.3L2,59.48,2.81,66a5.72,5.72,0,0,0,3.31,4.5Z"/><path class="cls-2" d="M70.64,34.85S96.84,16.76,108.7,13s25.58-3.12,25.58-3.12l-.62,21.84Z"/><path class="cls-3" d="M46.47,41.25,26,58l-9,1c.35,3.22,9.31,6.73,12.37,5,0,0,3-2.57,3.14-2.78,4-4.49,9.15-8.35,15.35-8.77,4.71-.32,9.68.07,13.71,2.77a16.36,16.36,0,0,1,4.87,5.14c.35.58,2,5.64,2.56,5.64H177c1-6,7-12,14-13,18-3,24,12,24,12a17.39,17.39,0,0,0,9-4,9.39,9.39,0,0,0-3-9l-20.2-7a2.07,2.07,0,0,1-.92-3.26L207,33,50,39.91A5.93,5.93,0,0,0,46.47,41.25Z"/><circle class="cls-4" cx="196" cy="72.67" r="15"/><line class="cls-5" x1="127.62" y1="42.73" x2="119.21" y2="43.01"/><circle class="cls-2" cx="196" cy="72.67" r="8"/><path class="cls-5" d="M10.28,60s-.5,3.47,1.49,5,6.93,1,6.93,1"/><circle class="cls-6" cx="50" cy="73" r="15"/><circle class="cls-2" cx="50" cy="73" r="8"/><path class="cls-7" d="M222.25,35.53s-13.46-1.81-17.69,7.24l15.69,5.05Z"/><path class="cls-2" d="M141.39,9.89V31.11l49.92-2.5s-6.49-11.23-19-15.6S141.39,9.89,141.39,9.89Z"/><path class="cls-5" d="M35.19,44.39s-19.91,3-22.33,7.24v1.09a3.1,3.1,0,0,0,3.68,3.05l6-1.12Z"/><path class="cls-5" d="M224.25,33.53s-13.46-1.81-17.69,7.24l15.69,5.05Z"/><line class="cls-5" x1="186.62" y1="38.73" x2="178.21" y2="39.01"/></g></g></svg>