<svg xmlns="http://www.w3.org/2000/svg" xmlns:xlink="http://www.w3.org/1999/xlink" viewBox="0 0 258.54 91"><defs><style>.cls-1,.cls-4{fill:#ffffff;}.cls-1,.cls-2,.cls-3,.cls-4,.cls-5{stroke:#000000;stroke-linecap:round;stroke-linejoin:round;}.cls-1{stroke-width:4px;}.cls-2{fill:none;}.cls-2,.cls-3,.cls-4,.cls-5{stroke-width:2px;}.cls-3{fill:url(#linear-gradient);}.cls-5{fill:url(#linear-gradient-2);}.cls-6{fill:#ed1c24;}.cls-7{fill:url(#linear-gradient-3);}</style><linearGradient id="linear-gradient" x1="22" y1="70" x2="62" y2="70" gradientUnits="userSpaceOnUse"><stop offset="0" stop-color="#656565"/><stop offset="1" stop-color="#171717"/></linearGradient><linearGradient id="linear-gradient-2" x1="176" y1="70" x2="216" y2="70" xlink:href="#linear-gradient"/><linearGradient id="linear-gradient-3" x1="130.92" y1="32" x2="130.92" y2="69" gradientUnits="userSpaceOnUse"><stop offset="0" stop-color="#fff" stop-opacity="0.5"/><stop offset="1" stop-color="#adadad"/></linearGradient></defs><title>pickup_clr</title><g id="Layer_2" data-name="Layer 2"><g id="Layer_1-2" data-name="Layer 1"><path class="cls-1" d="M163.45,2.09S99.55.71,86.5,9,52.84,28.19,52.84,28.19s-35,5.5-37.79,6.18S8.87,37.81,6.81,44,2,50.18,2,56.36,4.06,67.35,4.75,68s0,1.37,3.44,1.37h5.5s44,0,44,2.06-.69,6.87,0,7.56,6.18-4.12,6.87-4.12l102.36-1.37V70.79s5.5-.69,7.56,0S222.53,77,223.22,75.6s1.37-6.18,2.06-6.87,17.18-4.12,18.55-4.12,10.31,0,11.68-2.06,1.37-7.56,0-8.93a5.36,5.36,0,0,0-3.44-1.37s.69-22-2.75-26.11H168.94S168.26,6.21,163.45,2.09Z"/><path class="cls-2" d="M121.54,9.64s-21.3.69-26.79,3.44S70,25.44,69.33,30.25s0,4.81,0,4.81L121.54,33Z"/><circle class="cls-3" cx="42" cy="70" r="20"/><circle class="cls-4" cx="42" cy="70" r="10.67"/><circle class="cls-5" cx="196" cy="70" r="20"/><circle class="cls-4" cx="196" cy="70" r="10.67"/><path class="cls-2" d="M127,9.64V33L158,30.94s2.06,0,2.06-2.75V11.7A2.69,2.69,0,0,0,157.26,9C154.52,9,127,9.64,127,9.64Z"/><path class="cls-2" d="M17.05,38.81s-4.81,7.56-5.5,9.62,8.93,0,8.93,0l3.44-8.24Z"/><path class="cls-2" d="M8.87,55s-.69,7.56,1.37,9.62"/><path class="cls-6" d="M243.41,34.83a88.34,88.34,0,0,1,1.22,12.85s-2.75.69-3.44,0-5.89-9-7.24-11.18a.41.41,0,0,1,.27-.63l8.16-1.75A.86.86,0,0,1,243.41,34.83Z"/><path class="cls-2" d="M245.41,31.83a88.34,88.34,0,0,1,1.22,12.85s-2.75.69-3.44,0-5.89-9-7.24-11.18a.41.41,0,0,1,.27-.63l8.16-1.75A.86.86,0,0,1,245.41,31.83Z"/><path class="cls-7" d="M19,63l-5-1s-1-4,0-7l9-2,8-14,80-3,57-2,60-2s10,20,11,20,8-1,8-1v5s2,0,1,2-26,5-26,5-4-18-25-19-26,20-26,20l-9,1-1,3L66,69S65,48,45,46C23.09,43.81,19,63,19,63Z"/><line class="cls-2" x1="112.1" y1="41.76" x2="119.83" y2="41.76"/><line class="cls-2" x1="153.1" y1="39.76" x2="160.83" y2="39.76"/></g></g></svg>