<svg xmlns="http://www.w3.org/2000/svg" xmlns:xlink="http://www.w3.org/1999/xlink" viewBox="0 0 261.24 83.77"><defs><style>.cls-1,.cls-4{fill:#ffffff;}.cls-1,.cls-3,.cls-4,.cls-5,.cls-6{stroke:#000000;stroke-linecap:round;stroke-linejoin:round;}.cls-1{stroke-width:4px;}.cls-2{fill:url(#linear-gradient);}.cls-3,.cls-4,.cls-5,.cls-6{stroke-width:2px;}.cls-3{fill:url(#linear-gradient-2);}.cls-5{fill:url(#linear-gradient-3);}.cls-6{fill:none;}.cls-7{fill:#ed1c24;}</style><linearGradient id="linear-gradient" x1="135.61" y1="26.41" x2="135.61" y2="66.34" gradientUnits="userSpaceOnUse"><stop offset="0" stop-color="#fff" stop-opacity="0.5"/><stop offset="1" stop-color="#adadad"/></linearGradient><linearGradient id="linear-gradient-2" x1="33.24" y1="66.77" x2="65.24" y2="66.77" gradientUnits="userSpaceOnUse"><stop offset="0" stop-color="#656565"/><stop offset="1" stop-color="#171717"/></linearGradient><linearGradient id="linear-gradient-3" x1="191.91" y1="66.77" x2="223.91" y2="66.77" xlink:href="#linear-gradient-2"/></defs><title>wagon_clr</title><g id="Layer_2" data-name="Layer 2"><g id="Layer_1-2" data-name="Layer 1"><path class="cls-1" d="M217.7,5c-4-.53-8.71-1.51-10.36-1.72s-41.58-1.65-52.22-1.12-30,.32-46.35,6.32S78.75,25,73.48,26c0,0-43,3.37-54.78,6.74s-16,5.9-16,8.43V58.9L2,66.48s6.59,5.06,20.07,5.06,159.29-1.69,159.29-1.69,65.74-3.37,73.32-5.9c0,0,3.37-2.53,4.21-5.9s0-8.43-.84-9.27-4.53.16-5.37-1.53,1.1-7.23,2-11.11c.6-2.6,1.69-7.59.84-8.43s-5.79-3.94-9.27-6.59c-2.42-1.84-12.64-8.59-15.17-10.27L229.4,10Z"/><path class="cls-2" d="M168.61,65.27l-99,1s-.63-18.95-19-19.93c-19.36-1-21.67,19.26-21.67,19.26L20,66.34s-1.46-12.91-3.42-15.08l13-4,9-11,80-3,57-2L246,26.41l3.62,3.86s-.94,17.33-.2,18c1.58,1.44,5.17,4.83,5.17,4.83l0,4.17-1,2c-1,2-25,3-25,3s-3.73-15.07-19.7-16-21.3,16-21.3,16l-.24,2.46Z"/><circle class="cls-3" cx="49.24" cy="66.77" r="16"/><circle class="cls-4" cx="49.24" cy="66.77" r="8.5"/><circle class="cls-5" cx="207.91" cy="66.77" r="16"/><circle class="cls-4" cx="207.91" cy="66.77" r="8.5"/><path class="cls-6" d="M149.54,9.66l-2.36,19.25c13.41-.74,24.39-1.3,27.16-1.3,2.45,0,8.85-.26,16.55-.61L183.62,9.62C172.27,9.34,160.14,9.38,149.54,9.66Z"/><path class="cls-6" d="M232.24,24.9,227,18.65c-5.2-6.25-14.25-7.21-14.25-7.21-6.45-.82-15.12-1.37-24.58-1.68l7.69,17C212.53,26,232.24,24.9,232.24,24.9Z"/><path class="cls-6" d="M122.92,11.44c-13.27,2.33-38.6,21-38.6,21,3.35-.1,30.77-1.73,54.6-3.07l5.73-19.56C135,10.15,127,10.72,122.92,11.44Z"/><path class="cls-6" d="M32.91,38.77l-22,1.75L7.16,45l2.75,3.25a61.8,61.8,0,0,0,12-2.25C27.41,44.27,32.91,38.77,32.91,38.77Z"/><polyline class="cls-4" points="10.8 55.1 14.74 57.1 15.74 63.6 10.8 63.6"/><line class="cls-6" x1="125.34" y1="36.86" x2="134.07" y2="36.86"/><polygon class="cls-7" points="235.19 24.7 240 32.27 237.3 40.51 244.29 43.91 247.91 30.71 235.69 23.35 235.19 24.7"/><line class="cls-6" x1="182.54" y1="34.77" x2="191.28" y2="34.77"/><polygon class="cls-6" points="237.8 23.7 244.61 31.27 241.91 39.51 247.9 42.91 250.52 29.71 238.3 22.35 237.8 23.7"/></g></g></svg>