<svg xmlns="http://www.w3.org/2000/svg" xmlns:xlink="http://www.w3.org/1999/xlink" viewBox="0 0 249.64 69.78"><defs><style>.cls-1,.cls-4{fill:#ffffff;}.cls-1,.cls-2,.cls-3,.cls-4,.cls-6,.cls-7{stroke:#000000;stroke-linecap:round;stroke-linejoin:round;}.cls-1{stroke-width:4px;}.cls-2{fill:none;}.cls-2,.cls-3,.cls-4,.cls-6,.cls-7{stroke-width:2px;}.cls-3{fill:url(#linear-gradient);}.cls-5{fill:url(#linear-gradient-2);}.cls-6{fill:url(#linear-gradient-3);}.cls-7{fill:url(#linear-gradient-4);}.cls-8{fill:url(#linear-gradient-5);}.cls-9{fill:#ed1c24;}</style><linearGradient id="linear-gradient" x1="35.77" y1="48.17" x2="74.98" y2="48.17" gradientUnits="userSpaceOnUse"><stop offset="0" stop-color="#656565"/><stop offset="1" stop-color="#171717"/></linearGradient><linearGradient id="linear-gradient-2" x1="152.85" y1="20.33" x2="152.85" y2="54.83" gradientUnits="userSpaceOnUse"><stop offset="0" stop-color="#fff" stop-opacity="0.5"/><stop offset="1" stop-color="#adadad"/></linearGradient><linearGradient id="linear-gradient-3" x1="175.91" y1="49.17" x2="215.13" y2="49.17" xlink:href="#linear-gradient"/><linearGradient id="linear-gradient-4" x1="133.16" y1="29.56" x2="147.02" y2="29.56" xlink:href="#linear-gradient"/><linearGradient id="linear-gradient-5" x1="25.27" y1="41.58" x2="25.27" y2="54.83" xlink:href="#linear-gradient-2"/></defs><title>covertable_clr</title><g id="Layer_2" data-name="Layer 2"><g id="Layer_1-2" data-name="Layer 1"><path class="cls-1" d="M96,19.89a.37.37,0,0,1-.18-.7l24.08-13s2.72-1.53,2.13-3.06-4.17-1.11-4.17-1.11L77.74,19.14S36.43,23,22.15,28.83,2,40.31,2,40.31s2.3,3.32,2,6.38a46.35,46.35,0,0,1-2,9.18s2.22,1,3.32,1.53c2.51,1.28,8.42,2.55,8.42,2.55H67s74,.51,78,0,27.8.23,27.8.23h42.08l19.64-3s4.08.26,5.1-1,6.8-9.55,7.65-16.46c0,0,1.87-5.38-3.4-7.25-3.4-2.55-.51-7.82.34-9.35s1.19-5.61.51-5.78-2.38.51-4.59.51-24-1.79-26.86-2.38S196,14.46,196,14.46s-2.55-4.93-6.12-4.85-5.38.8-6.29,3.06a7.93,7.93,0,0,0-.57,2.18.48.48,0,0,1-.45.41l-25.69,1.45s1-5.1.13-6.82-5.67.19-6.38,2a12.52,12.52,0,0,0-.51,5.67c.26.7-34.62,2.1-34.62,2.1Z"/><path class="cls-2" d="M26.21,33.32,14.74,39.06l-1.91,1.4,11.5-1.15a11.38,11.38,0,0,0,6.1-2.42c3.32-2.42,4-3.57,4-3.57Z"/><circle class="cls-3" cx="55.37" cy="48.17" r="19.61"/><circle class="cls-4" cx="55.37" cy="48.17" r="10.42"/><path class="cls-5" d="M78.85,54.83s8.08-17.94-14.06-28.5c0,0,69.06-1.67,101.39-4.67s68.67,0,68.67,0l3.5,1.33s-2,3.79-1.33,6.56,1.5,5.76,3.5,7.43S236,52.16,236,52.16l-16.83,2.67s4.33-14.33-5.83-22.67-22-10.37-32.17-2.6S169.52,47,172,54.83Z"/><circle class="cls-6" cx="195.52" cy="49.17" r="19.61"/><circle class="cls-4" cx="195.52" cy="49.17" r="10.42"/><line class="cls-7" x1="133.16" y1="29.56" x2="147.02" y2="29.56"/><path class="cls-2" d="M13.44,46c.64,0,1.17,1.49,1.17,3.33s-.52,3.33-1.17,3.33"/><path class="cls-8" d="M31,41.58s-.5,8.14,1.5,13.25H18s2-8,0-10.5C18,44.33,27,44.58,31,41.58Z"/><path class="cls-9" d="M234.88,25.33l-3.51,9.59s-9.82-.23-13.1-3a48.61,48.61,0,0,0-5.15-4S226.69,25.33,234.88,25.33Z"/><path class="cls-2" d="M237.88,23.33l-3.51,9.59s-9.82-.23-13.1-3a48.61,48.61,0,0,0-5.15-4S229.69,23.33,237.88,23.33Z"/></g></g></svg>