<svg xmlns="http://www.w3.org/2000/svg" xmlns:xlink="http://www.w3.org/1999/xlink" viewBox="0 0 185.89 95"><defs><style>.cls-1,.cls-6{fill:#ffffff;}.cls-1,.cls-4,.cls-5,.cls-6,.cls-7{stroke:#000000;stroke-linecap:round;stroke-linejoin:round;}.cls-1{stroke-width:4px;}.cls-2{fill:#ed1c24;}.cls-3{fill:url(#linear-gradient);}.cls-4{fill:none;}.cls-4,.cls-5,.cls-6,.cls-7{stroke-width:2px;}.cls-5{fill:url(#linear-gradient-2);}.cls-7{fill:url(#linear-gradient-3);}</style><linearGradient id="linear-gradient" x1="94.92" y1="37" x2="94.92" y2="78" gradientUnits="userSpaceOnUse"><stop offset="0" stop-color="#fff" stop-opacity="0.5"/><stop offset="1" stop-color="#adadad"/></linearGradient><linearGradient id="linear-gradient-2" x1="24.5" y1="79" x2="54.5" y2="79" gradientUnits="userSpaceOnUse"><stop offset="0" stop-color="#656565"/><stop offset="1" stop-color="#171717"/></linearGradient><linearGradient id="linear-gradient-3" x1="142.5" x2="172.5" xlink:href="#linear-gradient-2"/></defs><title>hatchback_clr</title><g id="Layer_2" data-name="Layer 2"><g id="Layer_1-2" data-name="Layer 1"><path class="cls-1" d="M178,79l4.61-3.36,1.28-14.93-3.84-5.54s-.43-14.5-2.13-17.49-12.79-19.62-12.79-19.62l4.26-.85s1.71-.43-7.68-2.13-50.32-4.69-67-3.41S44,35.59,44,35.59c-15.14,3.2-27.08,8.74-32.63,12.15S5.84,58.41,5.84,58.41L2,61.4S2,71.63,5,77.6c2.28,4.57,9,4.64,11.35,4.42l37,2h87.18Z"/><polygon class="cls-2" points="169.44 33.12 164.75 33.12 164.75 44.2 173.28 55.29 175.98 55.29 173.5 39 169.44 33.12"/><path class="cls-3" d="M13.5,67s-1,7,2,8,3,0,3,0,3.42-8.26,11-13c8-5,25-6,31,16h76s1-19,22-19a21.31,21.31,0,0,1,18,12V61l-14-16V37s-8,2-11,3-22,5-27,5-67,1-71,1l-14,8C34,57.14,13.5,67,13.5,67Z"/><line class="cls-4" x1="84.68" y1="12.5" x2="96.18" y2="1"/><polyline class="cls-4" points="172.44 32.12 167.75 32.12 167.75 43.2 176.28 54.29 178.98 54.29"/><path class="cls-4" d="M108.77,17.62,104.5,39.79,57.16,41.07a78.38,78.38,0,0,1,20-15.78C89.15,18.89,100.24,18,108.77,17.62Z"/><path class="cls-4" d="M114.16,17.19l-1.71,22.6s25.59-.85,30.28-2.13,14.5-5.54,14.5-5.54a16.76,16.76,0,0,0-14.07-13.22C130.8,16.76,114.16,17.19,114.16,17.19Z"/><line class="cls-4" x1="143.16" y1="18.89" x2="143.16" y2="37.66"/><line class="cls-4" x1="93.6" y1="44.76" x2="101.33" y2="44.76"/><line class="cls-4" x1="145.6" y1="43.98" x2="153.32" y2="43.54"/><path class="cls-4" d="M54.88,69.5"/><path class="cls-4" d="M54.88,46"/><path class="cls-4" d="M106.06,75"/><path class="cls-4" d="M107.77,42.2"/><path class="cls-4" d="M158.52,57.56"/><path class="cls-4" d="M13.78,60.93s0-5.12,2.56-7.25S27,48.14,38.08,48.14c0,0-3.6,3.92-14.5,9A82.88,82.88,0,0,1,13.78,60.93Z"/><circle class="cls-5" cx="39.5" cy="79" r="15"/><circle class="cls-6" cx="39.5" cy="79" r="8"/><circle class="cls-7" cx="157.5" cy="79" r="15"/><circle class="cls-6" cx="157.5" cy="79" r="8"/></g></g></svg>