<svg xmlns="http://www.w3.org/2000/svg" xmlns:xlink="http://www.w3.org/1999/xlink" viewBox="0 0 246.46 111.17"><defs><style>.cls-1,.cls-5{fill:#ffffff;}.cls-1,.cls-3,.cls-4,.cls-5,.cls-6{stroke:#000000;stroke-linecap:round;stroke-linejoin:round;}.cls-1{stroke-width:4px;}.cls-2{fill:url(#linear-gradient);}.cls-3{fill:none;}.cls-3,.cls-4,.cls-5,.cls-6{stroke-width:2px;}.cls-4{fill:url(#linear-gradient-2);}.cls-6{fill:url(#linear-gradient-3);}.cls-7{fill:#ed1c24;}</style><linearGradient id="linear-gradient" x1="123.84" y1="37.68" x2="123.84" y2="87.98" gradientUnits="userSpaceOnUse"><stop offset="0" stop-color="#fff" stop-opacity="0.5"/><stop offset="1" stop-color="#adadad"/></linearGradient><linearGradient id="linear-gradient-2" x1="29.87" y1="92.14" x2="65.94" y2="92.14" gradientUnits="userSpaceOnUse"><stop offset="0" stop-color="#656565"/><stop offset="1" stop-color="#171717"/></linearGradient><linearGradient id="linear-gradient-3" x1="185.74" y1="92.14" x2="221.8" y2="92.14" xlink:href="#linear-gradient-2"/></defs><title>van_clr</title><g id="Layer_2" data-name="Layer 2"><g id="Layer_1-2" data-name="Layer 1"><path class="cls-1" d="M74.76,3.58a9.83,9.83,0,0,0-5.85,2.66L36.81,35.83S10.83,49,9,53.1,6.74,64.47,6.74,65.83,2.19,67.2,2.06,69s0,16.37,0,16.37S2.88,90,7.2,91.29s14.21.8,14.21.8H64.47l1.36,2.39h119.7l1.36-5.23h50.23a6.69,6.69,0,0,0,6.36-3.64c2.15-4.09,0-18.87,0-18.87L241,32.42s-2.27-17-6.5-25.6A8.58,8.58,0,0,0,226.7,2Z"/><path class="cls-2" d="M44.92,38.9,23.86,50.64s7.66,6.75,4.46,14.9-13.4,7-18.64,7.28c0,0-1.17,6.94,0,9.73s14.18,2.21,14.18,2.21,6.21-16.31,21.06-16,23.3,6.49,25,18L179.91,88S186,67.2,204.83,69.72s19.81,14,19.81,14H234a4.52,4.52,0,0,0,4.53-4.5,188.85,188.85,0,0,0-1.07-19.77L235.7,37.68s-4.47,5-17.87,5.24-82.92,1.55-82.92,1.55l-54,.58s-22.61,1.32-30.88-1.55S44.92,38.9,44.92,38.9Z"/><line class="cls-3" x1="91.97" y1="51.73" x2="106.11" y2="51.73"/><line class="cls-3" x1="148.45" y1="51.73" x2="162.58" y2="51.73"/><circle class="cls-4" cx="47.91" cy="92.14" r="18.03"/><circle class="cls-5" cx="47.91" cy="92.14" r="9.58"/><circle class="cls-6" cx="203.77" cy="92.14" r="18.03"/><circle class="cls-5" cx="203.77" cy="92.14" r="9.58"/><path class="cls-3" d="M96.46,11.53S85,11.76,80.18,12.67s-12.72,8.86-16.53,12S52.45,34,52.71,37.67s2,2.91,13,3,35.86,0,35.86,0,7.12-1.46,7.63-9a89.39,89.39,0,0,0,0-13s0-7.27-6.36-7.27Z"/><rect class="cls-7" x="230.5" y="50.63" width="8.6" height="19.01" rx="1.81" ry="1.81" transform="translate(-2.91 12.78) rotate(-3.1)"/><path class="cls-3" d="M127.85,11.33h41.91a7,7,0,0,1,7,7V35.14a6.75,6.75,0,0,1-6.75,6.75H128.64a7.8,7.8,0,0,1-7.8-7.8V18.34A7,7,0,0,1,127.85,11.33Z"/><path class="cls-3" d="M194.71,11.33h20.65A12.77,12.77,0,0,1,228.12,24.1v8.64a7.32,7.32,0,0,1-7.32,7.32H194.71a7.32,7.32,0,0,1-7.32-7.32V18.66A7.32,7.32,0,0,1,194.71,11.33Z"/><path class="cls-3" d="M21.55,56.8s-.69.06-6.32.06L14.06,66.8s10.45,2.1,9.76-6.14A6.19,6.19,0,0,0,21.55,56.8Z"/><rect class="cls-3" x="232.83" y="48.3" width="8.6" height="19.01" rx="1.81" ry="1.81" transform="translate(-2.78 12.91) rotate(-3.1)"/></g></g></svg>