<svg xmlns="http://www.w3.org/2000/svg" width="56" height="56"><g fill="none" fill-rule="evenodd" transform="translate(-5 -3)"><path d="M0 0h64v64H0z"/><circle cx="35" cy="29" r="26" fill="#EEFBF9"/><circle cx="32" cy="32" r="26" stroke="#0D405C" stroke-linecap="round"/><g stroke="#0D405C" stroke-linecap="round"><path d="M23.655 21.614c.942-.405 2.16-.709 3.65-.912a62.423 62.423 0 013.459-.18c.302-.012.599-.018.89-.018h.577c1.432 0 2.987.071 4.663.215 1.386.203 2.51.507 3.372.914l.14.107c.128.13.291.381.488.751.56 1.026 1.188 2.714 1.887 5.065a4.24 4.24 0 01.733-.09c.537-.012.92.077 1.153.268l.612.913c.325.787.285 1.57-.122 2.344H43.88l-.018.699c.059.536.246.979.56 1.323v9.343c-.094.452-.42.673-.979.661h-3.79a.808.808 0 01-.191-.25l-.175-.52v-1.755l-14.567-.016v1.754l-.176.518a.893.893 0 01-.226.25h-4.087c-.619.014-.979-.208-1.084-.66v-9.343c.361-.345.565-.786.612-1.323l-.017-.7h-1.38c-.431-.787-.478-1.568-.141-2.343l.664-.912c.256-.191.676-.281 1.257-.269.291.013.554.035.787.073.756-2.34 1.444-4.021 2.061-5.048.21-.37.378-.62.506-.752l.158-.107z"/><path d="M40.327 28.687c-1.443.39-3.252.677-5.423.86-4.353.367-8.365.041-12.035-.98.122-.539.29-1.135.503-1.789.436-1.306.913-2.258 1.427-2.855.94-.344 2.215-.607 3.827-.79 3.212-.344 6.486-.082 9.821.79l.855 1.446c.595 1.168.935 2.276 1.025 3.318zm-3.624 7.083c-.163-.37.121-.83.855-1.379a9.451 9.451 0 011.833-.984c1.283-.513 2.04-.365 2.272.447L41.785 35c-.034.417-.168.727-.402.93a1.05 1.05 0 01-.418.233H37.33l-.244-.071a.436.436 0 01-.245-.161.581.581 0 01-.14-.161zm-9.381 0c.162-.37-.121-.83-.855-1.379a9.451 9.451 0 00-1.833-.984c-1.283-.513-2.04-.365-2.273.447L22.241 35c.033.417.167.727.4.93.117.108.257.185.42.233h3.633l.244-.071a.436.436 0 00.245-.161.581.581 0 00.139-.161z"/></g></g></svg>