<svg xmlns="http://www.w3.org/2000/svg" viewBox="0 0 532.7 384.94"><defs><style>.cls-1,.cls-4,.cls-5,.cls-7{fill:none;}.cls-1,.cls-2,.cls-3,.cls-4,.cls-5{stroke:#000000;}.cls-1,.cls-2,.cls-5,.cls-6,.cls-7{stroke-linecap:round;stroke-linejoin:round;}.cls-1,.cls-2,.cls-3,.cls-4,.cls-6,.cls-7{stroke-width:7px;}.cls-2,.cls-3,.cls-6{fill:#ffffff;}.cls-3,.cls-4{stroke-miterlimit:10;}.cls-5{stroke-width:6px;}.cls-6,.cls-7{stroke:#00a99d;}</style></defs><title>CNG</title><g id="Layer_2" data-name="Layer 2"><g id="Layer_1-2" data-name="Layer 1"><line class="cls-1" x1="131.37" y1="359.65" x2="190.22" y2="359.65"/><line class="cls-1" x1="46.08" y1="359.65" x2="104.93" y2="359.65"/><line class="cls-1" x1="91.86" y1="381.44" x2="216.35" y2="381.44"/><line class="cls-1" x1="3.5" y1="359.65" x2="18.21" y2="359.65"/><line class="cls-1" x1="445.2" y1="359.65" x2="485.7" y2="359.65"/><line class="cls-1" x1="386.12" y1="381.44" x2="456.74" y2="381.44"/><line class="cls-1" x1="514.2" y1="359.65" x2="529.2" y2="359.65"/><line class="cls-1" x1="206.72" y1="359.65" x2="412.84" y2="359.65"/><path class="cls-2" d="M363.25,329.27V160.1c0-45.29-40.64-82-90.78-82h0c-50.14,0-90.78,36.71-90.78,82V329.27"/><line class="cls-1" x1="363.25" y1="331.02" x2="363.25" y2="244.12"/><line class="cls-1" x1="363.25" y1="244.12" x2="346.17" y2="244.12"/><line class="cls-1" x1="346.37" y1="215.71" x2="363.25" y2="215.71"/><path class="cls-2" d="M346.25,244.12h23.92c8.77,0,16-6.39,16-14.2s-7.18-14.2-16-14.2H346.25"/><path class="cls-2" d="M194.69,215.71H168.55a14.2,14.2,0,0,0,0,28.41h26.14"/><line class="cls-1" x1="178.69" y1="215.71" x2="194.72" y2="215.71"/><path class="cls-2" d="M181.68,331H170.29c-8.77,0-16,6.39-16,14.2s7.18,14.2,16,14.2H370.16c8.77,0,16-6.39,16-14.2s-7.18-14.2-16-14.2h-6.92"/><line class="cls-1" x1="178.69" y1="244.12" x2="194.72" y2="244.12"/><line class="cls-1" x1="363.25" y1="331.02" x2="181.68" y2="331.02"/><path class="cls-1" d="M196.7,245.65a48.74,48.74,0,0,1-2-13.86,41.55,41.55,0,0,1,3.48-16.63"/><path class="cls-1" d="M329.21,213.7"/><path class="cls-1" d="M345.16,245.65a48.74,48.74,0,0,0,2-13.86,41.55,41.55,0,0,0-3.48-16.63"/><rect class="cls-3" x="257.24" y="3.5" width="38.13" height="19.25" rx="6" ry="6"/><rect class="cls-3" x="264.03" y="22.75" width="25.24" height="36.11" rx="7.86" ry="7.86"/><path class="cls-3" d="M263.27,58.85h41.87a6.67,6.67,0,0,1,6.65,6.65v6a6.67,6.67,0,0,1-6.65,6.65H253.56"/><path class="cls-3" d="M263.27,58.85c0-.48,0-1,0-1.46a26.86,26.86,0,1,0-9.75,20.71"/><path class="cls-4" d="M263.27,58.85a26.81,26.81,0,0,1-9.71,19.25"/><line class="cls-5" x1="236.45" y1="34.73" x2="236.45" y2="42.11"/><line class="cls-5" x1="259.5" y1="56.33" x2="252.12" y2="56.32"/><line class="cls-5" x1="220.25" y1="56.33" x2="212.87" y2="56.32"/><path class="cls-6" d="M312,252.65a41.84,41.84,0,1,1-83.69,0c0-23.11,41.84-73.23,41.84-73.23S312,229.55,312,252.65Z"/><polyline class="cls-7" points="270.18 179.43 270.18 266.78 270.18 323.79"/><line class="cls-7" x1="306.04" y1="232.64" x2="271.04" y2="267.64"/><line class="cls-7" x1="234.95" y1="232.64" x2="269.95" y2="267.64"/></g></g></svg>