<svg xmlns="http://www.w3.org/2000/svg" viewBox="0 0 532.2 322.8"><defs><style>.cls-1,.cls-4{fill:none;}.cls-1,.cls-2{stroke:#000000;}.cls-1,.cls-2,.cls-3,.cls-4{stroke-linecap:round;stroke-linejoin:round;stroke-width:7px;}.cls-2,.cls-3{fill:#ffffff;}.cls-3,.cls-4{stroke:#00a99d;}</style></defs><title>Elec_v1</title><g id="Layer_2" data-name="Layer 2"><g id="Layer_1-2" data-name="Layer 1"><line class="cls-1" x1="132.4" y1="297.5" x2="161.8" y2="297.5"/><line class="cls-1" x1="46.1" y1="297.5" x2="104.9" y2="297.5"/><line class="cls-1" x1="91.9" y1="319.3" x2="216.4" y2="319.3"/><line class="cls-1" x1="3.5" y1="297.5" x2="18.2" y2="297.5"/><line class="cls-1" x1="418.5" y1="296.6" x2="442.1" y2="296.6"/><line class="cls-1" x1="386.1" y1="318.4" x2="456.7" y2="318.4"/><line class="cls-1" x1="468.7" y1="296.6" x2="499" y2="296.6"/><path class="cls-2" d="M391.8,296.6H185.7l1.8-87.6A68.24,68.24,0,0,1,149,147.8V124.3a9.84,9.84,0,0,1,9.9-9.8H377.7a10,10,0,0,1,9.9,9.8v23.5a68.47,68.47,0,0,1-41.3,62.6l-3.6,86.3"/><path class="cls-2" d="M205.3,3.5h9.3a8.07,8.07,0,0,1,8.1,8.1V114.4H197.1V11.6A8.15,8.15,0,0,1,205.3,3.5Z"/><path class="cls-2" d="M317.8,3.5h9.3a8.07,8.07,0,0,1,8.1,8.1h0V114.4H309.7V11.6a8.07,8.07,0,0,1,8.1-8.1Z"/><path class="cls-3" d="M308,218.5a41.8,41.8,0,1,1-83.6,0c0-23.1,41.8-73.2,41.8-73.2S308,195.4,308,218.5Z"/><polyline class="cls-4" points="266.2 145.2 266.2 232.6 266.2 289.6"/><line class="cls-4" x1="302" y1="198.4" x2="267" y2="233.5"/><line class="cls-4" x1="230.9" y1="198.4" x2="266" y2="233.5"/><line class="cls-1" x1="520" y1="296.6" x2="528.7" y2="296.6"/></g></g></svg>