<svg id="f03b02d9-4319-4aae-bfdb-3e8483647ab8" data-name="Layer 1" xmlns="http://www.w3.org/2000/svg" viewBox="0 0 530.11 346.23"><g id="fa8f0da7-3e21-4d74-8bd5-54dff2ac4863" data-name="Layer 2"><g id="f7727e2f-24a0-419d-b4e5-6c1e0a208ac5" data-name="Layer 1-2"><line x1="442.62" y1="299.14" x2="483.12" y2="299.14" fill="none" stroke="#000" stroke-linecap="round" stroke-linejoin="round" stroke-width="7"/><line x1="46.08" y1="299.14" x2="104.93" y2="299.14" fill="none" stroke="#000" stroke-linecap="round" stroke-linejoin="round" stroke-width="7"/><line x1="131.37" y1="299.14" x2="190.22" y2="299.14" fill="none" stroke="#000" stroke-linecap="round" stroke-linejoin="round" stroke-width="7"/><line x1="91.86" y1="320.93" x2="216.35" y2="320.93" fill="none" stroke="#000" stroke-linecap="round" stroke-linejoin="round" stroke-width="7"/><line x1="383.53" y1="320.93" x2="454.15" y2="320.93" fill="none" stroke="#000" stroke-linecap="round" stroke-linejoin="round" stroke-width="7"/><line x1="215.34" y1="342.73" x2="401.4" y2="342.73" fill="none" stroke="#000" stroke-linecap="round" stroke-linejoin="round" stroke-width="7"/><line x1="229.75" y1="320.93" x2="245.54" y2="320.93" fill="none" stroke="#000" stroke-linecap="round" stroke-linejoin="round" stroke-width="7"/><line x1="3.5" y1="299.14" x2="18.21" y2="299.14" fill="none" stroke="#000" stroke-linecap="round" stroke-linejoin="round" stroke-width="7"/><line x1="511.61" y1="299.14" x2="526.61" y2="299.14" fill="none" stroke="#000" stroke-linecap="round" stroke-linejoin="round" stroke-width="7"/><line x1="204.13" y1="299.14" x2="410.25" y2="299.14" fill="none" stroke="#000" stroke-linecap="round" stroke-linejoin="round" stroke-width="7"/><path d="M172.48,263.18H368.86a11.68,11.68,0,0,1,11.68,11.68v24.28H160.8V274.86A11.68,11.68,0,0,1,172.48,263.18Z" fill="#fff" stroke="#000" stroke-linecap="round" stroke-linejoin="round" stroke-width="7"/><path d="M196.16,3.5H343.39a12.06,12.06,0,0,1,12.06,12.06V263.18H184.1V15.56A12.06,12.06,0,0,1,196.16,3.5Z" fill="#fff" stroke="#000" stroke-linecap="round" stroke-linejoin="round" stroke-width="7"/><path id="a857bf6b-0f66-4ddf-88db-e1c4072cd328" data-name="Path" d="M259.58,138.9H227.83c20.11-30.43,60.23-91,60.23-91s-8.94,43.07-13.52,64.61H312C288.76,143.81,241.62,207,241.62,207s12.21-45.62,18-68.12" fill="none" stroke="#00a89c" stroke-linecap="round" stroke-linejoin="round" stroke-width="7"/><path d="M362.33,49.67l39.06,88.78V221.9a8.89,8.89,0,0,1-8.88,8.88h0a8.89,8.89,0,0,1-8.88-8.88h0V204.4a17.13,17.13,0,0,0-17.13-17.13h-6.84" fill="#fff" stroke="#000" stroke-linecap="round" stroke-linejoin="round" stroke-width="7"/><path d="M372.28,73.55v51.83a15.3,15.3,0,0,0,15.29,15.29h11.17" fill="none" stroke="#000" stroke-linecap="round" stroke-linejoin="round" stroke-width="7"/></g></g></svg>