<svg xmlns="http://www.w3.org/2000/svg" viewBox="0 0 545.47 312.63"><defs><style>.cls-1,.cls-3,.cls-5{fill:none;}.cls-1,.cls-2,.cls-3{stroke:#000000;}.cls-1,.cls-4,.cls-5{stroke-linecap:round;stroke-linejoin:round;}.cls-1,.cls-2,.cls-3,.cls-4,.cls-5{stroke-width:7px;}.cls-2,.cls-4{fill:#ffffff;}.cls-2,.cls-3{stroke-miterlimit:10;}.cls-4,.cls-5{stroke:#00afa0;}</style></defs><title>diesel</title><g id="Layer_2" data-name="Layer 2"><g id="Layer_1-2" data-name="Layer 1"><line class="cls-1" x1="46.08" y1="287.34" x2="104.93" y2="287.34"/><line class="cls-1" x1="131.37" y1="287.34" x2="190.22" y2="287.34"/><line class="cls-1" x1="91.86" y1="309.13" x2="216.35" y2="309.13"/><line class="cls-1" x1="3.5" y1="287.34" x2="18.21" y2="287.34"/><line class="cls-1" x1="457.98" y1="287.34" x2="498.47" y2="287.34"/><line class="cls-1" x1="398.89" y1="309.13" x2="469.51" y2="309.13"/><line class="cls-1" x1="526.97" y1="287.34" x2="541.97" y2="287.34"/><line class="cls-1" x1="219.49" y1="287.34" x2="425.61" y2="287.34"/><rect class="cls-2" x="188.9" y="19.11" width="180.69" height="251.71"/><line class="cls-3" x1="189.76" y1="160.59" x2="189.76" y2="256.11"/><line class="cls-3" x1="189.76" y1="24.93" x2="189.76" y2="129.36"/><line class="cls-3" x1="370.45" y1="256.11" x2="370.45" y2="160.59"/><line class="cls-2" x1="370.45" y1="160.59" x2="335.17" y2="160.59"/><line class="cls-2" x1="333.87" y1="129.36" x2="370.45" y2="129.36"/><path class="cls-2" d="M231.76,129.36H178.43a15.62,15.62,0,1,0,0,31.23h53.33"/><line class="cls-2" x1="189.76" y1="129.36" x2="232.17" y2="129.36"/><line class="cls-2" x1="189.76" y1="160.59" x2="230.87" y2="160.59"/><path class="cls-2" d="M191.74,255.21H180.41a15.62,15.62,0,1,0,0,31.23H379.32a15.62,15.62,0,1,0,0-31.23H191.74Z"/><path class="cls-2" d="M191.74,129.36H180.41a15.62,15.62,0,1,0,0,31.23H379.32a15.62,15.62,0,1,0,0-31.23H191.74Z"/><path class="cls-2" d="M191.74,3.5H180.41a15.79,15.79,0,0,0-15.88,15.61,15.79,15.79,0,0,0,15.88,15.61H379.32A15.79,15.79,0,0,0,395.2,19.11,15.79,15.79,0,0,0,379.32,3.5H191.74Z"/><circle class="cls-4" cx="279.25" cy="146.49" r="53.83"/><path class="cls-5" d="M297.09,155.07a18.21,18.21,0,0,1-36.42,0c0-9.89,18.21-31.69,18.21-31.69S297.09,145.18,297.09,155.07Z"/></g></g></svg>