<svg xmlns="http://www.w3.org/2000/svg" viewBox="0 0 530.11 346.23"><defs><style>.cls-1,.cls-3{fill:none;}.cls-1,.cls-2{stroke:#000000;}.cls-1,.cls-2,.cls-3{stroke-linecap:round;stroke-linejoin:round;stroke-width:7px;}.cls-2{fill:#ffffff;}.cls-3{stroke:#00afa0;}</style></defs><title>petrol</title><g id="Layer_2" data-name="Layer 2"><g id="Layer_1-2" data-name="Layer 1"><line class="cls-1" x1="442.62" y1="299.14" x2="483.12" y2="299.14"/><line class="cls-1" x1="46.08" y1="299.14" x2="104.93" y2="299.14"/><line class="cls-1" x1="131.37" y1="299.14" x2="190.22" y2="299.14"/><line class="cls-1" x1="91.86" y1="320.93" x2="216.35" y2="320.93"/><line class="cls-1" x1="383.53" y1="320.93" x2="454.15" y2="320.93"/><line class="cls-1" x1="215.34" y1="342.73" x2="401.4" y2="342.73"/><line class="cls-1" x1="229.75" y1="320.93" x2="245.54" y2="320.93"/><line class="cls-1" x1="3.5" y1="299.14" x2="18.21" y2="299.14"/><line class="cls-1" x1="511.61" y1="299.14" x2="526.61" y2="299.14"/><line class="cls-1" x1="204.13" y1="299.14" x2="410.25" y2="299.14"/><path class="cls-2" d="M172.48,263.18H368.86a11.68,11.68,0,0,1,11.68,11.68v24.28a0,0,0,0,1,0,0H160.8a0,0,0,0,1,0,0V274.86A11.68,11.68,0,0,1,172.48,263.18Z"/><path class="cls-2" d="M196.16,3.5H343.39a12.06,12.06,0,0,1,12.06,12.06V263.18a0,0,0,0,1,0,0H184.1a0,0,0,0,1,0,0V15.56A12.06,12.06,0,0,1,196.16,3.5Z"/><path class="cls-3" d="M217.24,28.14H322.32a8.06,8.06,0,0,1,8.06,8.06V127.3a0,0,0,0,1,0,0H209.23a0,0,0,0,1,0,0V36.19A8.06,8.06,0,0,1,217.24,28.14Z"/><path class="cls-2" d="M362.33,49.67l39.06,88.78V221.9a8.88,8.88,0,0,1-8.88,8.88h0a8.88,8.88,0,0,1-8.88-8.88v-17.5a17.13,17.13,0,0,0-17.13-17.13h-6.84"/><path class="cls-1" d="M372.28,73.55v51.83a15.29,15.29,0,0,0,15.29,15.29h11.17"/></g></g></svg>