<svg id="ed60e21f-1e71-4bb3-89c6-1f846af99125" data-name="a93f9fc7-6394-491b-8c00-031f459d9161" xmlns="http://www.w3.org/2000/svg" viewBox="0 0 48 48"><path d="M25.42,25.33a.49.49,0,0,1-.49-.49h0V18.92a.39.39,0,0,0-.27-.37l-3.21-1a1.38,1.38,0,0,1-1-1.32V8a.5.5,0,0,1,1,0v8.23a.41.41,0,0,0,.27.38l3.21,1a1.39,1.39,0,0,1,1,1.32v5.91a.5.5,0,0,1-.51.49Zm7.34-14.72A1.79,1.79,0,1,1,31,8.83h0A1.8,1.8,0,0,1,32.76,10.61Zm-1,0a.8.8,0,1,0-.8.8h0a.8.8,0,0,0,.81-.79h0Zm1,6.22A1.79,1.79,0,1,1,31,15a1.79,1.79,0,0,1,1.76,1.83Zm-1,0a.8.8,0,1,0-.8.8h0a.8.8,0,0,0,.81-.79h0Zm1,6.21A1.79,1.79,0,1,1,31,21.25h0A1.79,1.79,0,0,1,32.76,23Zm-1,0a.8.8,0,1,0-.8.8h0a.8.8,0,0,0,.81-.79v0Zm5.88,7.23H11.11a.3.3,0,0,0,0,.6h5.55a.54.54,0,0,0,0,.18v3.5H14.9a1.37,1.37,0,0,0-1.37,1.37V36l.39,5.24a1.38,1.38,0,0,0,1.37,1.28h0l3.76-.08a1.38,1.38,0,0,0,1.35-1.25L20.9,36a1.37,1.37,0,0,0-1.36-1.44H17.61v-3.5a.54.54,0,0,0,0-.18H30.77a.54.54,0,0,0,0,.18v3.42H29.12a1.38,1.38,0,0,0-1.39,1.37h0v8.68A1.47,1.47,0,0,0,29.16,46h2.28a1.49,1.49,0,0,0,1.36-1.2l1.75-8.68a1.37,1.37,0,0,0-1.36-1.62H31.72V31.05a.54.54,0,0,0,0-.18h6a.3.3,0,0,0,0-.6Z" fill="#494949"/><path d="M25.2,9.82H16.9a1.49,1.49,0,0,0-1.48,1.49v.82a1.48,1.48,0,0,0,1.48,1.48h8.3a1.48,1.48,0,0,0,1.48-1.48v-.82A1.49,1.49,0,0,0,25.2,9.82Zm.49,2.31a.51.51,0,0,1-.49.5H16.9a.51.51,0,0,1-.49-.5v-.82a.49.49,0,0,1,.48-.5H25.2a.49.49,0,0,1,.49.49h0Z" fill="#04b8a4"/><path d="M25.69,11.31v.82a.51.51,0,0,1-.49.5H16.9a.51.51,0,0,1-.49-.5v-.82a.49.49,0,0,1,.48-.5H25.2a.49.49,0,0,1,.49.49Zm7.5,24.15a.41.41,0,0,1,.31.14.42.42,0,0,1,.08.33l-1.75,8.68a.4.4,0,0,1-.39.31H29.16a.38.38,0,0,1-.4-.38h0V35.85a.38.38,0,0,1,.39-.39h4Zm-13.38.2a.38.38,0,0,1,.11.3l-.47,5.16a.38.38,0,0,1-.38.35l-3.77.08h0a.38.38,0,0,1-.38-.36L14.52,36a.35.35,0,0,1,.1-.29.36.36,0,0,1,.28-.12h4.63A.35.35,0,0,1,19.81,35.66Z" fill="#fff"/></svg>