<svg id="f56c81bb-a2e8-4d5d-969b-ef7efd46feac" data-name="b4d184ba-5a7d-4e66-b193-011eed453d17" xmlns="http://www.w3.org/2000/svg" viewBox="0 0 48 48"><path d="M38.29,35a1.38,1.38,0,0,0-1.07-.51H35.64V30.87H37a.3.3,0,0,0,.11-.59.21.21,0,0,0-.11,0H10.33a.3.3,0,0,0-.11.59h1.94v3.66h-2a1.39,1.39,0,0,0-1.39,1.39,1.06,1.06,0,0,0,0,.25l1,5.42a1.39,1.39,0,0,0,1.37,1.15H15a1.4,1.4,0,0,0,1.4-1.39V35.93a1.4,1.4,0,0,0-1.4-1.4H13.15V30.87H23.39v3.62H21.62a1.38,1.38,0,0,0-1.37,1.44l.4,5.32A1.4,1.4,0,0,0,22,42.59h0l3.82-.07a1.39,1.39,0,0,0,1.36-1.27L27.71,36a1.34,1.34,0,0,0-.36-1.06,1.41,1.41,0,0,0-1-.45h-2V30.87h10.3v3.62H33.12a1.4,1.4,0,0,0-1.39,1.4v8.72A1.39,1.39,0,0,0,33.12,46h2.34a1.39,1.39,0,0,0,1.36-1.12l1.76-8.72A1.39,1.39,0,0,0,38.29,35ZM16.5,27.23a1.85,1.85,0,0,0,1.81-1.89A1.83,1.83,0,0,0,17,23.61V17.74h7v5.89a1.84,1.84,0,1,0,1,0V17.75h7.3a1.4,1.4,0,0,0,1.4-1.39V10.91a1.84,1.84,0,1,0-1,0v5.44a.4.4,0,0,1-.4.4H25V10.89a1.84,1.84,0,1,0-2.34-1.78A1.88,1.88,0,0,0,24,10.91v5.86H17V12.58H16v11a1.82,1.82,0,0,0-1.36,1.76,1.85,1.85,0,0,0,1.84,1.86Zm15.88-18a.85.85,0,1,1,.85.85h0a.86.86,0,0,1-.85-.87v0Zm-8.69,0a.85.85,0,0,1,1.7,0,.86.86,0,0,1-.86.85.85.85,0,0,1-.85-.83s0-.07,0-.11Zm.77,15.43a.85.85,0,1,1,0,1.7.9.9,0,0,1-.08-1.79h.08Zm-7.95,0a.85.85,0,1,1,0,1.7.85.85,0,0,1-.84-.84h0a.86.86,0,0,1,.71-1h.14Z" fill="#494849"/><path d="M15,6.7h3.24A1.72,1.72,0,0,1,20,8.4v0a1.61,1.61,0,0,1,0,.31l-.35,1.88A2.61,2.61,0,0,1,17,12.75h-.8a2.58,2.58,0,0,1-2.52-2.06l-.4-1.9a1.74,1.74,0,0,1,1.34-2A2.34,2.34,0,0,1,15,6.7Z" fill="#00b8a5"/><path d="M15,7.69h-.15a.73.73,0,0,0-.56.86l.4,1.91a1.6,1.6,0,0,0,1.55,1.27H17a1.6,1.6,0,0,0,1.57-1.3L19,8.57a.29.29,0,0,0,0-.13.72.72,0,0,0-.71-.73h0ZM37.33,35.47a.41.41,0,0,1,.31.14.46.46,0,0,1,.08.34L36,44.74a.41.41,0,0,1-.4.32H33.23a.4.4,0,0,1-.4-.4h0V35.87a.4.4,0,0,1,.4-.4h4.1Zm-11,0a.36.36,0,0,1,.29.13.38.38,0,0,1,.11.3l-.49,5.3a.4.4,0,0,1-.39.36L22,41.63a.39.39,0,0,1-.41-.38l-.4-5.36a.38.38,0,0,1,.11-.3.39.39,0,0,1,.29-.13Zm-11.41,0a.4.4,0,0,1,.41.39h0v5.47a.4.4,0,0,1-.4.4H11a.4.4,0,0,1-.4-.34l-1-5.4a.47.47,0,0,1,.09-.33.41.41,0,0,1,.31-.14Z" fill="#fff"/></svg>